<svg width="104" height="104" viewBox="0 0 104 104" fill="none" xmlns="http://www.w3.org/2000/svg">
<path d="M52 103C80.1665 103 103 80.1665 103 52C103 23.8335 80.1665 1 52 1C23.8335 1 1 23.8335 1 52C1 80.1665 23.8335 103 52 103Z" stroke="#173751" stroke-width="2"/>
<path d="M51.9987 68.6667C61.2034 68.6667 68.6654 61.2048 68.6654 52C68.6654 42.7953 61.2034 35.3333 51.9987 35.3333C42.794 35.3333 35.332 42.7953 35.332 52C35.332 61.2048 42.794 68.6667 51.9987 68.6667Z" stroke="#173751" stroke-width="2" stroke-linecap="round" stroke-linejoin="round"/>
<path d="M52 62C57.5228 62 62 57.5228 62 52C62 46.4772 57.5228 42 52 42C46.4772 42 42 46.4772 42 52C42 57.5228 46.4772 62 52 62Z" stroke="#173751" stroke-width="2" stroke-linecap="round" stroke-linejoin="round"/>
<path d="M52.0013 55.3333C53.8423 55.3333 55.3346 53.8409 55.3346 52C55.3346 50.159 53.8423 48.6667 52.0013 48.6667C50.1604 48.6667 48.668 50.159 48.668 52C48.668 53.8409 50.1604 55.3333 52.0013 55.3333Z" stroke="#173751" stroke-width="2" stroke-linecap="round" stroke-linejoin="round"/>
</svg>
