<svg width="104" height="104" viewBox="0 0 104 104" fill="none" xmlns="http://www.w3.org/2000/svg">
<path d="M52 103C80.1665 103 103 80.1665 103 52C103 23.8335 80.1665 1 52 1C23.8335 1 1 23.8335 1 52C1 80.1665 23.8335 103 52 103Z" stroke="#173751" stroke-width="2"/>
<path d="M47 50.3333L52 55.3333L68.6667 38.6667" stroke="#173751" stroke-width="2" stroke-linecap="round" stroke-linejoin="round"/>
<path d="M67 52V63.6667C67 64.5507 66.6488 65.3986 66.0237 66.0237C65.3986 66.6488 64.5507 67 63.6667 67H40.3333C39.4493 67 38.6014 66.6488 37.9763 66.0237C37.3512 65.3986 37 64.5507 37 63.6667V40.3333C37 39.4493 37.3512 38.6014 37.9763 37.9763C38.6014 37.3512 39.4493 37 40.3333 37H58.6667" stroke="#173751" stroke-width="2" stroke-linecap="round" stroke-linejoin="round"/>
</svg>
