<svg width="104" height="104" viewBox="0 0 104 104" fill="none" xmlns="http://www.w3.org/2000/svg">
<path d="M47 62H57" stroke="#173751" stroke-width="2" stroke-linecap="round" stroke-linejoin="round"/>
<path d="M48.668 67H55.3346" stroke="#173751" stroke-width="2" stroke-linecap="round" stroke-linejoin="round"/>
<path d="M47.0013 57C47.003 53.6667 46.1697 52.8333 44.5013 51.1667C42.8347 49.5 42.0413 47.8117 42.0013 45.3333C41.923 40.25 45.3347 37 52.0013 37C58.6696 37 62.083 40.25 62.0013 45.3333C61.963 47.8117 61.168 49.5 59.5013 51.1667C57.8363 52.8333 57.003 53.6667 57.0013 57" stroke="#173751" stroke-width="2" stroke-linecap="round" stroke-linejoin="round"/>
<path d="M52 103C80.1665 103 103 80.1665 103 52C103 23.8335 80.1665 1 52 1C23.8335 1 1 23.8335 1 52C1 80.1665 23.8335 103 52 103Z" stroke="#173751" stroke-width="2"/>
</svg>
