<svg width="114" height="114" viewBox="0 0 114 114" fill="none" xmlns="http://www.w3.org/2000/svg">
<path d="M37.5 42L45 71.5L59.3251 74.6545L70.3251 62.1545L67.5 48.5L37.5 42Z" fill="#C7BEC0"/>
<circle cx="56" cy="60" r="4" fill="white"/>
<path fill-rule="evenodd" clip-rule="evenodd" d="M57 109C85.7188 109 109 85.7188 109 57C109 28.2812 85.7188 5 57 5C28.2812 5 5 28.2812 5 57C5 85.7188 28.2812 109 57 109ZM57 114C88.4802 114 114 88.4802 114 57C114 25.5198 88.4802 0 57 0C25.5198 0 0 25.5198 0 57C0 88.4802 25.5198 114 57 114Z" fill="#F0F0F0"/>
<path fill-rule="evenodd" clip-rule="evenodd" d="M71.6995 61.1161C72.1876 60.628 72.9791 60.628 73.4672 61.1161L79.7172 67.3661C80.2054 67.8543 80.2054 68.6457 79.7172 69.1339L65.1339 83.7172C64.6457 84.2054 63.8543 84.2054 63.3661 83.7172L57.1161 77.4672C56.628 76.9791 56.628 76.1876 57.1161 75.6995L71.6995 61.1161ZM59.7678 76.5833L64.25 81.0656L77.0656 68.25L72.5833 63.7678L59.7678 76.5833Z" fill="#173751"/>
<path fill-rule="evenodd" clip-rule="evenodd" d="M36.2831 40.2831C36.7713 39.795 37.5627 39.795 38.0509 40.2831L53.855 56.0873C54.3432 56.5754 54.3432 57.3669 53.855 57.855C53.3669 58.3432 52.5754 58.3432 52.0873 57.855L36.2831 42.0509C35.795 41.5627 35.795 40.7713 36.2831 40.2831Z" fill="#173751"/>
<path fill-rule="evenodd" clip-rule="evenodd" d="M55.9167 57C54.3058 57 53 58.3058 53 59.9167C53 61.5275 54.3058 62.8333 55.9167 62.8333C57.5275 62.8333 58.8333 61.5275 58.8333 59.9167C58.8333 58.3058 57.5275 57 55.9167 57ZM50.5 59.9167C50.5 56.9251 52.9251 54.5 55.9167 54.5C58.9082 54.5 61.3333 56.9251 61.3333 59.9167C61.3333 62.9082 58.9082 65.3333 55.9167 65.3333C52.9251 65.3333 50.5 62.9082 50.5 59.9167Z" fill="#173751"/>
<path fill-rule="evenodd" clip-rule="evenodd" d="M36.2831 40.2831C36.591 39.9752 37.037 39.8497 37.4603 39.9519L67.6686 47.2436C68.1418 47.3578 68.5056 47.7363 68.6011 48.2135L71.7261 63.8385C71.808 64.2484 71.6798 64.672 71.3842 64.9676L60.9676 75.3842C60.672 75.6798 60.2484 75.808 59.8385 75.7261L44.2135 72.6011C43.7363 72.5056 43.3578 72.1418 43.2436 71.6686L35.9519 41.4603C35.8497 41.037 35.9752 40.591 36.2831 40.2831ZM38.8621 42.8621L45.4865 70.3062L59.6728 73.1434L69.1434 63.6728L66.3062 49.4865L38.8621 42.8621Z" fill="#173751"/>
</svg>
