<svg width="21" height="21" viewBox="0 0 21 21" fill="none" xmlns="http://www.w3.org/2000/svg">
<path d="M12.7686 4.63843C13.6571 4.81177 14.4736 5.24628 15.1136 5.88636C15.7537 6.52643 16.1882 7.34294 16.3616 8.23138M12.7686 1C14.6145 1.20506 16.3357 2.03165 17.6498 3.34407C18.9639 4.65648 19.7926 6.3767 20 8.22229M19.0904 15.481V18.2098C19.0914 18.4631 19.0395 18.7139 18.938 18.946C18.8366 19.1781 18.6877 19.3864 18.501 19.5577C18.3144 19.729 18.094 19.8593 17.854 19.9405C17.614 20.0217 17.3597 20.0518 17.1074 20.029C14.3084 19.7249 11.6198 18.7684 9.25753 17.2365C7.05976 15.84 5.19643 13.9766 3.79988 11.7789C2.26262 9.40587 1.30596 6.70415 1.00738 3.89255C0.984652 3.64102 1.01455 3.3875 1.09516 3.14815C1.17578 2.9088 1.30534 2.68886 1.47562 2.50233C1.64589 2.3158 1.85314 2.16676 2.08417 2.06472C2.3152 1.96267 2.56494 1.90985 2.8175 1.90961H5.54633C5.98777 1.90526 6.41572 2.06158 6.75043 2.34943C7.08514 2.63728 7.30376 3.03702 7.36554 3.47413C7.48072 4.34742 7.69432 5.20487 8.00227 6.03013C8.12465 6.3557 8.15114 6.70953 8.07859 7.04969C8.00604 7.38986 7.83751 7.70209 7.59295 7.94941L6.43774 9.10461C7.73262 11.3819 9.61815 13.2674 11.8954 14.5623L13.0506 13.4071C13.2979 13.1625 13.6101 12.994 13.9503 12.9214C14.2905 12.8489 14.6443 12.8753 14.9699 12.9977C15.7951 13.3057 16.6526 13.5193 17.5259 13.6345C17.9677 13.6968 18.3713 13.9194 18.6597 14.2598C18.9482 14.6003 19.1015 15.0349 19.0904 15.481Z" stroke="#173751" stroke-width="1.5" stroke-linecap="round" stroke-linejoin="round"/>
</svg>
