<svg width="50" height="50" viewBox="0 0 50 50" fill="none" xmlns="http://www.w3.org/2000/svg">
<rect width="50" height="50" rx="10" fill="#F8B202"/>
<path d="M18.4841 15.0001C18.3813 14.9987 18.2793 15.0176 18.1841 15.0556C18.0888 15.0936 18.0024 15.15 17.9297 15.2213C17.7855 15.3629 17.7044 15.555 17.7044 15.7552C17.7044 15.9555 17.7855 16.1476 17.9297 16.2892C18.0739 16.4308 18.2696 16.5103 18.4736 16.5103C18.6775 16.5103 18.8732 16.4308 19.0174 16.2892C19.1617 16.1476 19.2427 15.9555 19.2427 15.7552C19.2427 15.555 19.1617 15.3629 19.0174 15.2213C18.8758 15.0822 18.6844 15.0028 18.4841 15.0001ZM31.5385 15.0001C31.4354 14.9985 31.3331 15.0173 31.2376 15.0553C31.1422 15.0933 31.0554 15.1498 30.9826 15.2213C30.8383 15.3629 30.7573 15.555 30.7573 15.7552C30.7573 15.9555 30.8383 16.1476 30.9826 16.2892C31.1268 16.4308 31.3225 16.5103 31.5264 16.5103C31.7304 16.5103 31.9261 16.4308 32.0703 16.2892C32.2145 16.1476 32.2956 15.9555 32.2956 15.7552C32.2956 15.555 32.2145 15.3629 32.0703 15.2213C31.929 15.0826 31.7383 15.0032 31.5385 15.0001ZM25 15.3659C21.1762 15.3659 18.0769 18.4084 18.0769 22.1623C18.0769 25.9381 21.1538 27.4484 22.6923 30.469H27.3077C28.8462 27.4484 31.9231 25.9381 31.9231 22.1623C31.9231 18.4084 28.8238 15.3659 25 15.3659ZM25 17.6313V21.4071H28.0769L25 26.6933V22.9175H21.9231L25 17.6313ZM15.7692 21.4071C15.5652 21.4071 15.3696 21.4867 15.2253 21.6283C15.081 21.7699 15 21.962 15 22.1623C15 22.3626 15.081 22.5547 15.2253 22.6963C15.3696 22.8379 15.5652 22.9175 15.7692 22.9175C15.9732 22.9175 16.1689 22.8379 16.3132 22.6963C16.4574 22.5547 16.5385 22.3626 16.5385 22.1623C16.5385 21.962 16.4574 21.7699 16.3132 21.6283C16.1689 21.4867 15.9732 21.4071 15.7692 21.4071ZM34.2308 21.4071C34.0268 21.4071 33.8311 21.4867 33.6868 21.6283C33.5426 21.7699 33.4615 21.962 33.4615 22.1623C33.4615 22.3626 33.5426 22.5547 33.6868 22.6963C33.8311 22.8379 34.0268 22.9175 34.2308 22.9175C34.4348 22.9175 34.6304 22.8379 34.7747 22.6963C34.919 22.5547 35 22.3626 35 22.1623C35 21.962 34.919 21.7699 34.7747 21.6283C34.6304 21.4867 34.4348 21.4071 34.2308 21.4071ZM18.4841 27.8142C18.381 27.8126 18.2787 27.8314 18.1833 27.8694C18.0878 27.9074 18.001 27.9639 17.9282 28.0354C17.784 28.177 17.7029 28.3691 17.7029 28.5693C17.7029 28.7696 17.784 28.9617 17.9282 29.1033C17.9996 29.1736 18.0845 29.2294 18.178 29.2675C18.2714 29.3055 18.3716 29.3251 18.4728 29.3251C18.574 29.3251 18.6742 29.3055 18.7676 29.2675C18.8611 29.2294 18.946 29.1736 19.0174 29.1033C19.1617 28.9617 19.2427 28.7696 19.2427 28.5693C19.2427 28.3691 19.1617 28.177 19.0174 28.0354C18.8758 27.8963 18.6844 27.8169 18.4841 27.8142ZM31.537 27.8157C31.4343 27.8141 31.3323 27.8328 31.2371 27.8705C31.1419 27.9083 31.0554 27.9643 30.9826 28.0354C30.9109 28.1056 30.8541 28.1889 30.8153 28.2807C30.7765 28.3724 30.7566 28.4708 30.7566 28.5701C30.7566 28.6694 30.7765 28.7678 30.8153 28.8595C30.8541 28.9513 30.9109 29.0346 30.9826 29.1047C31.1268 29.2463 31.3225 29.3259 31.5264 29.3259C31.7304 29.3259 31.9261 29.2463 32.0703 29.1047C32.142 29.0346 32.1988 28.9513 32.2376 28.8595C32.2763 28.7678 32.2963 28.6694 32.2963 28.5701C32.2963 28.4708 32.2763 28.3724 32.2376 28.2807C32.1988 28.1889 32.142 28.1056 32.0703 28.0354C31.9284 27.8968 31.7371 27.818 31.537 27.8157ZM22.6923 31.9794V32.7345C22.6923 33.569 23.3808 34.2448 24.2308 34.2448C24.2308 34.4451 24.3118 34.6372 24.4561 34.7788C24.6003 34.9204 24.796 35 25 35C25.204 35 25.3997 34.9204 25.5439 34.7788C25.6882 34.6372 25.7692 34.4451 25.7692 34.2448C26.6192 34.2448 27.3077 33.569 27.3077 32.7345V31.9794H22.6923Z" fill="white"/>
</svg>
