<svg width="50" height="50" viewBox="0 0 50 50" fill="none" xmlns="http://www.w3.org/2000/svg">
<rect width="50" height="50" rx="10" fill="#27166D"/>
<path d="M32 16H18C17.2044 16 16.4413 16.3161 15.8787 16.8787C15.3161 17.4413 15 18.2044 15 19V27C15 27.7956 15.3161 28.5587 15.8787 29.1213C16.4413 29.6839 17.2044 30 18 30H24V32H20C19.7348 32 19.4804 32.1054 19.2929 32.2929C19.1054 32.4804 19 32.7348 19 33C19 33.2652 19.1054 33.5196 19.2929 33.7071C19.4804 33.8946 19.7348 34 20 34H30C30.2652 34 30.5196 33.8946 30.7071 33.7071C30.8946 33.5196 31 33.2652 31 33C31 32.7348 30.8946 32.4804 30.7071 32.2929C30.5196 32.1054 30.2652 32 30 32H26V30H32C32.7956 30 33.5587 29.6839 34.1213 29.1213C34.6839 28.5587 35 27.7956 35 27V19C35 18.2044 34.6839 17.4413 34.1213 16.8787C33.5587 16.3161 32.7956 16 32 16ZM33 27C33 27.2652 32.8946 27.5196 32.7071 27.7071C32.5196 27.8946 32.2652 28 32 28H18C17.7348 28 17.4804 27.8946 17.2929 27.7071C17.1054 27.5196 17 27.2652 17 27V19C17 18.7348 17.1054 18.4804 17.2929 18.2929C17.4804 18.1054 17.7348 18 18 18H32C32.2652 18 32.5196 18.1054 32.7071 18.2929C32.8946 18.4804 33 18.7348 33 19V27Z" fill="white"/>
</svg>
