<svg width="48" height="48" viewBox="0 0 48 48" fill="none" xmlns="http://www.w3.org/2000/svg">
<path fill-rule="evenodd" clip-rule="evenodd" d="M0 24C0 10.7452 10.7452 0 24 0C37.2548 0 48 10.7452 48 24C48 37.2548 37.2548 48 24 48C10.7452 48 0 37.2548 0 24Z" fill="#407BFF"/>
<path fill-rule="evenodd" clip-rule="evenodd" d="M32.9558 22.4284C34.1899 22.8276 34.2188 24.5634 32.9995 25.005L27.1488 27.1241C26.936 27.201 26.7435 27.325 26.5855 27.4869C26.4275 27.6489 26.3082 27.8445 26.2366 28.0591L24.298 33.8803C23.8901 35.106 22.1644 35.1283 21.7246 33.9141L16.4645 19.3908C16.309 18.9615 16.3799 18.5358 16.5905 18.2035C16.5908 18.203 16.591 18.2026 16.5913 18.2022C16.9036 17.7106 17.5217 17.4237 18.1647 17.6323C18.165 17.6324 18.1644 17.6322 18.1647 17.6323C18.1649 17.6324 18.1659 17.6327 18.1661 17.6328L32.9558 22.4284ZM26.4691 25.2431L30.5708 23.7575L21.4389 20.796L21.4412 20.8024L18.7903 19.9393L22.9802 31.5077L24.3395 27.4261C24.5066 26.9251 24.7851 26.4684 25.1539 26.0903C25.5224 25.7126 25.9715 25.4232 26.4677 25.2436C26.4682 25.2434 26.4686 25.2433 26.4691 25.2431Z" fill="white"/>
</svg>
