<svg width="83" height="62" viewBox="0 0 83 62" fill="none" xmlns="http://www.w3.org/2000/svg">
<path d="M60.9997 55.2991C69.836 55.2991 76.9993 48.1358 76.9993 39.2995C76.9993 30.4631 69.836 23.2998 60.9997 23.2998C52.1633 23.2998 45 30.4631 45 39.2995C45 48.1358 52.1633 55.2991 60.9997 55.2991Z" stroke="black" stroke-width="3.5" stroke-linecap="round" stroke-linejoin="round"/>
<path d="M80.9991 59.2994L72.2993 50.5996" stroke="black" stroke-width="3.5" stroke-linecap="round" stroke-linejoin="round"/>
<path d="M53.3 2H7.7C4.55198 2 2 4.55198 2 7.7V36.2C2 39.348 4.55198 41.9 7.7 41.9H53.3C56.448 41.9 59 39.348 59 36.2V7.7C59 4.55198 56.448 2 53.3 2Z" stroke="black" stroke-width="3.5" stroke-linecap="round" stroke-linejoin="round"/>
<path d="M19.1001 53.2998H41.9001" stroke="black" stroke-width="3.5" stroke-linecap="round" stroke-linejoin="round"/>
<path d="M30.5 41.9004V53.3004" stroke="black" stroke-width="3.5" stroke-linecap="round" stroke-linejoin="round"/>
<path d="M61 54.2998C69.2843 54.2998 76 47.5841 76 39.2998C76 31.0155 69.2843 24.2998 61 24.2998C52.7157 24.2998 46 31.0155 46 39.2998C46 47.5841 52.7157 54.2998 61 54.2998Z" fill="#FF3152"/>
</svg>
